<?xml version="1.0" encoding="iso-8859-1"?>
<!-- Uploaded to: SVG Repo, www.svgrepo.com, Generator: SVG Repo Mixer Tools -->
<svg height="800px" width="800px" version="1.1" id="Layer_1" xmlns="http://www.w3.org/2000/svg" xmlns:xlink="http://www.w3.org/1999/xlink" 
	 viewBox="0 0 460.917 460.917" xml:space="preserve">
<g transform="translate(0 -952.36)">
	<path style="fill:#FF642F;" d="M292.223,1404.785c-122.589,34.112-249.62-37.613-283.732-160.202c0,0,0,0,0,0
		c-34.112-122.589,37.613-249.62,160.202-283.732l0,0c122.589-34.112,249.62,37.613,283.732,160.202l0,0
		C486.537,1243.642,414.812,1370.673,292.223,1404.785L292.223,1404.785z"/>
	<g>
		<path style="fill:#24566D;" d="M419.918,1185.399c-1.703-0.384-3.489-0.476-5.265-0.302c-4.567,0.445-9.256,2.558-13.273,6.127
			l-59.192,52.596c-4.017,3.569-6.664,7.977-7.646,12.46c-0.204,0.932-0.332,1.871-0.38,2.813l9.103-8.088
			c0.78-1.014,1.684-2.003,2.714-2.918l59.192-52.596c2.669-2.372,5.678-3.863,8.469-4.513L419.918,1185.399L419.918,1185.399z"/>
		
			<ellipse transform="matrix(0.7475 -0.6642 0.6642 0.7475 -747.8676 541.7956)" style="fill:#24566D;" cx="338.775" cy="1254.685" rx="6.241" ry="1.992"/>
	</g>
	<path style="fill:#FFCE35;" d="M191.939,1010.638c-1.717-0.076-3.456,0.512-4.83,1.77l-186.8,171.03
		c-0.026,20.654,2.725,41.219,8.18,61.14c27.816,99.573,118.554,168.426,221.94,168.41l175.95-161.09
		c2.748-2.516,2.936-6.752,0.42-9.5l-210.19-229.57C195.351,1011.454,193.656,1010.714,191.939,1010.638z"/>
	<g>
		<path style="fill:#3B3C3D;" d="M187.142,1035.864c-3.28-3.583-8.919-3.831-12.501-0.551s-3.831,8.918-0.551,12.501
			c3.28,3.583,8.905,3.816,12.487,0.536C190.16,1045.07,190.422,1039.447,187.142,1035.864z M183.978,1038.761
			c1.716,1.874,1.576,4.71-0.298,6.426c-1.874,1.716-4.711,1.606-6.427-0.269c-1.716-1.874-1.59-4.725,0.284-6.441
			C179.412,1036.761,182.262,1036.886,183.978,1038.761L183.978,1038.761z"/>
		<path style="fill:#3B3C3D;" d="M170.508,1026.09l11.518,12.58c1.203,1.313,1.113,3.339-0.2,4.542
			c-1.313,1.203-3.339,1.113-4.541-0.2l-11.518-12.58c-1.203-1.313-1.113-3.339,0.2-4.542
			C167.28,1024.687,169.306,1024.776,170.508,1026.09z"/>
		<path style="fill:#3B3C3D;" d="M163.991,1057.061c-3.28-3.583-8.919-3.831-12.501-0.551c-3.583,3.28-3.831,8.918-0.551,12.501
			c3.28,3.583,8.905,3.816,12.487,0.536C167.009,1066.266,167.271,1060.643,163.991,1057.061z M160.827,1059.957
			c1.716,1.874,1.576,4.71-0.298,6.426c-1.874,1.716-4.711,1.606-6.427-0.269c-1.716-1.874-1.59-4.725,0.284-6.441
			C156.261,1057.957,159.111,1058.083,160.827,1059.957L160.827,1059.957z"/>
		<path style="fill:#3B3C3D;" d="M147.357,1047.286l11.518,12.58c1.203,1.313,1.113,3.339-0.2,4.542
			c-1.313,1.203-3.339,1.113-4.542-0.2l-11.518-12.58c-1.203-1.313-1.113-3.339,0.2-4.542
			C144.129,1045.883,146.155,1045.972,147.357,1047.286L147.357,1047.286z"/>
		<path style="fill:#3B3C3D;" d="M141.24,1077.892c-3.28-3.583-8.919-3.831-12.501-0.551c-3.583,3.28-3.831,8.918-0.551,12.501
			c3.28,3.583,8.905,3.816,12.487,0.536C144.257,1087.097,144.52,1081.474,141.24,1077.892z M138.076,1080.788
			c1.716,1.874,1.576,4.709-0.298,6.426c-1.874,1.716-4.711,1.606-6.427-0.269c-1.716-1.874-1.59-4.725,0.284-6.441
			C133.509,1078.788,136.36,1078.913,138.076,1080.788L138.076,1080.788z"/>
		<path style="fill:#3B3C3D;" d="M124.606,1068.117l11.518,12.58c1.203,1.313,1.113,3.339-0.2,4.542
			c-1.313,1.203-3.339,1.113-4.542-0.2l-11.518-12.58c-1.203-1.313-1.113-3.339,0.2-4.542
			C121.378,1066.714,123.403,1066.803,124.606,1068.117L124.606,1068.117z"/>
		<path style="fill:#3B3C3D;" d="M117.69,1099.453c-3.28-3.583-8.919-3.831-12.501-0.551c-3.583,3.28-3.831,8.918-0.551,12.501
			c3.28,3.583,8.905,3.816,12.487,0.536C120.708,1108.659,120.97,1103.036,117.69,1099.453z M114.526,1102.35
			c1.716,1.874,1.576,4.71-0.298,6.426c-1.874,1.716-4.711,1.606-6.427-0.269c-1.716-1.874-1.59-4.725,0.284-6.441
			C109.959,1100.35,112.81,1100.475,114.526,1102.35L114.526,1102.35z"/>
		<path style="fill:#3B3C3D;" d="M101.056,1089.678l11.518,12.58c1.203,1.313,1.113,3.339-0.2,4.542
			c-1.313,1.203-3.339,1.114-4.542-0.2l-11.518-12.58c-1.203-1.313-1.113-3.339,0.2-4.542
			C97.828,1088.276,99.854,1088.365,101.056,1089.678L101.056,1089.678z"/>
		<path style="fill:#3B3C3D;" d="M94.539,1120.65c-3.28-3.583-8.919-3.831-12.501-0.551c-3.583,3.28-3.831,8.918-0.551,12.501
			c3.28,3.583,8.905,3.816,12.487,0.536S97.819,1124.233,94.539,1120.65z M91.375,1123.546c1.716,1.874,1.576,4.71-0.298,6.426
			c-1.874,1.716-4.711,1.606-6.427-0.269c-1.716-1.874-1.59-4.725,0.284-6.441C86.809,1121.546,89.659,1121.672,91.375,1123.546
			L91.375,1123.546z"/>
		<path style="fill:#3B3C3D;" d="M77.905,1110.875l11.518,12.58c1.203,1.313,1.113,3.339-0.2,4.542
			c-1.313,1.202-3.339,1.113-4.541-0.2l-11.518-12.58c-1.203-1.313-1.113-3.339,0.2-4.542
			C74.677,1109.472,76.703,1109.561,77.905,1110.875L77.905,1110.875z"/>
		<path style="fill:#3B3C3D;" d="M71.787,1141.48c-3.28-3.583-8.919-3.831-12.501-0.551c-3.583,3.28-3.831,8.918-0.551,12.501
			c3.28,3.583,8.905,3.816,12.487,0.536C74.805,1150.686,75.068,1145.063,71.787,1141.48z M68.624,1144.377
			c1.716,1.874,1.576,4.709-0.298,6.426c-1.874,1.716-4.711,1.606-6.427-0.269c-1.716-1.874-1.59-4.725,0.284-6.441
			C64.057,1142.377,66.908,1142.502,68.624,1144.377L68.624,1144.377z"/>
		<path style="fill:#3B3C3D;" d="M55.154,1131.706l11.518,12.58c1.203,1.313,1.113,3.339-0.2,4.542
			c-1.313,1.202-3.339,1.113-4.541-0.2l-11.518-12.58c-1.203-1.313-1.113-3.339,0.2-4.542
			C51.926,1130.303,53.951,1130.392,55.154,1131.706z"/>
		<path style="fill:#3B3C3D;" d="M45.843,1165.235c-3.28-3.583-8.919-3.831-12.501-0.551c-3.583,3.28-3.831,8.918-0.551,12.502
			c3.28,3.583,8.905,3.816,12.487,0.536C48.86,1174.441,49.123,1168.818,45.843,1165.235L45.843,1165.235z M42.679,1168.132
			c1.716,1.874,1.576,4.71-0.298,6.426c-1.874,1.716-4.711,1.606-6.427-0.271c-1.716-1.874-1.59-4.725,0.284-6.441
			c1.874-1.716,4.725-1.591,6.441,0.284L42.679,1168.132z"/>
		<path style="fill:#3B3C3D;" d="M29.209,1155.46l11.518,12.58c1.203,1.313,1.113,3.339-0.2,4.542
			c-1.313,1.203-3.339,1.114-4.542-0.2l-11.518-12.58c-1.203-1.313-1.113-3.339,0.2-4.542
			C25.981,1154.058,28.006,1154.148,29.209,1155.46L29.209,1155.46z"/>
		<path style="fill:#3B3C3D;" d="M22.692,1186.431c-3.28-3.583-8.919-3.831-12.501-0.551c-3.583,3.28-3.831,8.918-0.551,12.501
			c3.28,3.583,8.905,3.816,12.487,0.536C25.71,1195.637,25.972,1190.014,22.692,1186.431z M19.528,1189.328
			c1.716,1.874,1.576,4.709-0.298,6.426c-1.874,1.716-4.711,1.606-6.427-0.271c-1.716-1.874-1.59-4.725,0.284-6.441
			C14.962,1187.326,17.812,1187.451,19.528,1189.328L19.528,1189.328z"/>
		<path style="fill:#3B3C3D;" d="M6.058,1176.657l11.518,12.58c1.203,1.313,1.113,3.339-0.2,4.542
			c-1.313,1.203-3.339,1.113-4.541-0.2l-11.518-12.58c-1.203-1.313-1.113-3.339,0.2-4.542
			C2.83,1175.254,4.856,1175.344,6.058,1176.657z"/>
	</g>
	<path style="fill:#24566D;" d="M439.34,1176.907l9.534,10.883l-17.525,15.352l-9.534-10.883L439.34,1176.907z"/>
	<path style="fill:#27BEC4;" d="M428.426,1186.779l9.226,10.532c2.059,2.351,1.824,5.901-0.526,7.96l-195.169,170.97
		c-2.351,2.059-5.901,1.825-7.96-0.526l-9.226-10.532c-2.059-2.351-1.824-5.9,0.526-7.959l195.169-170.97
		C422.817,1184.193,426.367,1184.428,428.426,1186.779L428.426,1186.779z"/>
	<path style="fill:#D3D2D3;" d="M228.852,1381.209c-5.196,4.552-32.353,23.732-35.171,20.516
		c-2.818-3.217,19.771-27.613,24.966-32.165c5.196-4.552,11.692-5.634,14.51-2.417
		C235.975,1370.36,234.048,1376.657,228.852,1381.209z"/>
	<path style="fill:#24566D;" d="M242.153,1359.263c-4.647-5.305-12.97-5.618-18.585-0.699c-4.229,3.704-18.39,20.403-23.133,30.693
		l6.476,7.392c10.825-3.348,29.261-15.166,33.49-18.87C246.015,1372.861,246.8,1364.569,242.153,1359.263L242.153,1359.263z"/>
</g>
</svg>